<?xml version="1.0" encoding="UTF-8"?>
<!DOCTYPE svg PUBLIC "-//W3C//DTD SVG 1.1//EN" "http://www.w3.org/Graphics/SVG/1.1/DTD/svg11.dtd">
<svg xmlns="http://www.w3.org/2000/svg" xml:space="preserve" width="88.8975mm" height="19.9908mm" version="1.1" shape-rendering="geometricPrecision" text-rendering="geometricPrecision" image-rendering="optimizeQuality" fill-rule="evenodd" clip-rule="evenodd"
viewBox="0 0 4891.38 1099.95"
 xmlns:xlink="http://www.w3.org/1999/xlink">
 <g id="Capa_x0020_1">
  <metadata id="Layer"/>
  <path fill="#FDFEFE" fill-rule="nonzero" d="M1346.17 140.48l0 0 273.73 0 0 24.89c-78.4,18.07 -136.35,63.06 -173.85,134.65l-355.55 730.18 -292.48 -541.34 -255.67 541.34 -375.66 -735.98c-35.79,-67.84 -91.36,-110.79 -166.7,-128.86l0 -24.89 423.38 0 0 24.89c-22.5,7.16 -38.18,21.13 -46.7,41.59 -8.86,20.12 -8.18,40.91 1.7,62.38l245.78 479.29 247.83 -558.38 300.67 558.38 227.71 -466.34c10.57,-25.56 10.57,-49.43 0.34,-71.93 -10.23,-22.84 -28.63,-37.84 -54.54,-45l0 -24.89zm498.38 698.82l0 0c0,30 9.21,56.93 27.61,80.45 18.41,23.86 42.27,39.54 72.27,47.38l0 25.23 -99.88 0 -199.76 0 -99.54 0 0 -25.23c29.66,-7.84 53.86,-23.52 72.27,-47.38 18.41,-23.52 27.27,-50.46 27.27,-80.45l0 -246.46c0,-27.27 -5.46,-50.79 -16.36,-70.56 -10.91,-19.43 -30.34,-29.32 -58.29,-29.32l0 -23.86 45 -10.22c69.88,-10.57 129.53,-40.57 179.64,-89.65l49.77 0 0 470.08zm-99.88 -545.08l0 0c-27.27,0 -50.79,-9.89 -70.22,-29.66 -19.78,-19.43 -29.66,-42.96 -29.66,-70.23 0,-27.27 9.88,-50.79 29.66,-70.56 19.43,-19.43 42.95,-29.32 70.22,-29.32 27.95,0 51.81,9.88 70.91,29.32 19.43,19.77 28.97,43.29 28.97,70.56 0,27.27 -9.55,50.79 -28.97,70.23 -19.09,19.77 -42.96,29.66 -70.91,29.66zm873.01 571.33l0 0c35.12,49.09 82.15,82.5 140.79,99.88l0 24.89 -34.09 0 -365.43 0 0 -24.89c17.39,-7.5 28.29,-19.09 33.07,-35.11 4.43,-16.02 2.05,-31.7 -7.16,-47.04l-126.81 -181.69 -22.84 -32.05 0 191.92c0,23.18 6.48,44.32 19.77,63.41 13.29,19.09 31.36,32.39 53.86,40.56l0 24.89 -73.63 0 -199.76 0 -75 0 0 -24.89c22.5,-8.18 40.9,-21.48 54.54,-40.56 13.63,-19.09 20.45,-40.23 20.45,-63.41l0 -569.28c0,-20.79 -7.5,-38.18 -22.16,-52.84 -14.66,-14.66 -32.39,-22.16 -52.84,-22.16l0 -24.89 61.02 -9.88c58.97,-10.23 113.85,-31.7 163.63,-65.11l50.11 0 0 249.87 0 99.88 0 73.64 0 114.88 189.53 -189.53c11.25,-12.62 15.34,-26.59 11.93,-41.59 -3.07,-15 -12.61,-25.9 -27.95,-32.39l0 -24.88 114.88 0 110.11 0 0 24.88c-59.31,16.7 -111.13,46.7 -155.1,90l-76.7 76.7c0,0 12.28,18.07 37.5,53.86 24.89,36.13 53.86,77.72 87.27,124.42 33.4,47.04 63.74,89.65 91.01,128.52zm466 -26.25l0 0c0,30 9.21,56.93 27.61,80.45 18.41,23.86 42.27,39.54 72.27,47.38l0 25.23 -99.88 0 -199.76 0 -99.54 0 0 -25.23c29.66,-7.84 53.86,-23.52 72.27,-47.38 18.41,-23.52 27.27,-50.46 27.27,-80.45l0 -246.46c0,-27.27 -5.46,-50.79 -16.36,-70.56 -10.91,-19.43 -30.34,-29.32 -58.29,-29.32l0 -23.86 45 -10.22c69.88,-10.57 129.53,-40.57 179.64,-89.65l49.77 0 0 470.08zm-99.88 -545.08l0 0c-27.27,0 -50.79,-9.89 -70.22,-29.66 -19.78,-19.43 -29.66,-42.96 -29.66,-70.23 0,-27.27 9.88,-50.79 29.66,-70.56 19.43,-19.43 42.95,-29.32 70.22,-29.32 27.95,0 51.81,9.88 70.91,29.32 19.43,19.77 28.97,43.29 28.97,70.56 0,27.27 -9.55,50.79 -28.97,70.23 -19.09,19.77 -42.96,29.66 -70.91,29.66z"/>
  <path fill="#FDFEFE" stroke="black" stroke-width="11" stroke-miterlimit="22.9256" d="M3869.72 5.5l471.68 0c299.46,0 544.47,245.01 544.47,544.47l0 0c0,141.27 -54.55,270.41 -143.6,367.44l-422.13 -872.56 -12.88 0 -435.93 881.11 205.39 0 55.32 -124.32 346.81 0 54.11 124.32 201.3 0c-99.28,103.67 -238.87,168.48 -392.87,168.48l-471.68 0c-299.46,0 -544.47,-245.01 -544.47,-544.47l0 0c0,-202.39 111.93,-379.89 276.93,-473.71l0 849.7 203.99 0 0 -854.56 -195.3 0c77.1,-42 165.32,-65.91 258.86,-65.91zm321.48 648.89l224.5 0 -110.84 -267.55 -113.65 267.55z"/>
 </g>
</svg>
